# xmcd
#
# Track frame offsets:
# 150
# 10947
# 26208
# 41285
# 48198
# 66318
# 77680
# 85019
# 106180
# 119665
# 133878
# 147401
# 162356
# 178193
# 193047
# 206472
# 221612
# 234539
# 248325
# 255048
#
# Disc length: 3580 seconds
#
#
# Revision: 2
# Processed by: cddbd v1.5.2PL0 Copyright (c) Steve Scherf et al.
# Submitted via: FreeRIP 2.951 
#
DISCID=100dfa14
DTITLE=Louis Armstrong - Hello Dolly
DYEAR=1900
DGENRE=Jazz
TTITLE0=Hello Dolly
TTITLE1=Mack The Knife
TTITLE2=On The Sunny Side Of The Street
TTITLE3=When The Saints Go Marching In
TTITLE4=Ain't Misbehavin
TTITLE5=Cut Off My Legs And Call Me 'Shorty'
TTITLE6=Blueberry Hill
TTITLE7=Jeepers Creepers
TTITLE8=You Won't Be Satisfied
TTITLE9=Cabaret
TTITLE10=Cain And Abel
TTITLE11=Basin Street Blues
TTITLE12=C'est Si Bon (It's So Good)
TTITLE13=Baby Won't You Please Come Home
TTITLE14=Honeysuckle Rose
TTITLE15=I'm Confessin That I Love You
TTITLE16=Your Just A No Account
TTITLE17=I'll Get Mine Bye And Bye
TTITLE18=High Society
TTITLE19=You Run Your Mouth And I'll Run My Business
EXTD=
EXTT0=
EXTT1=
EXTT2=
EXTT3=
EXTT4=
EXTT5=
EXTT6=
EXTT7=
EXTT8=
EXTT9=
EXTT10=
EXTT11=
EXTT12=
EXTT13=
EXTT14=
EXTT15=
EXTT16=
EXTT17=
EXTT18=
EXTT19=
PLAYORDER=
